<?xml version="1.0" standalone="no"?><!DOCTYPE svg PUBLIC "-//W3C//DTD SVG 1.1//EN" "http://www.w3.org/Graphics/SVG/1.1/DTD/svg11.dtd"><svg t="1566807837756" class="icon" viewBox="0 0 1024 1024" version="1.1" xmlns="http://www.w3.org/2000/svg" p-id="1028" xmlns:xlink="http://www.w3.org/1999/xlink" width="32" height="32"><defs><style type="text/css"></style></defs><path d="M517.11007935 322.94043042m-46.94810513 0a46.94810514 46.94810514 0 1 0 93.89621028 0 46.94810514 46.94810514 0 1 0-93.89621028 0Z" fill="#6970e0" p-id="1029"></path><path d="M630.85013941 362.42531218m-44.26584351 0a44.26584352 44.26584352 0 1 0 88.53168748 0 44.26584352 44.26584352 0 1 0-88.53168748 0Z" fill="#6970e0" p-id="1030"></path><path d="M692.3642295 451.79777031m-41.58265998 0a41.58265999 41.58265999 0 1 0 83.16532043 0 41.58265999 41.58265999 0 1 0-83.16532043 0Z" fill="#6970e0" p-id="1031"></path><path d="M693.59219762 557.04530804m-38.89993789 0a38.89993787 38.89993787 0 1 0 77.79987531 0 38.89993787 38.89993787 0 1 0-77.79987531 0Z" fill="#6970e0" p-id="1032"></path><path d="M644.75281917 638.35945796m-36.21721529 0a36.21721529 36.21721529 0 1 0 72.43443012 0 36.21721529 36.21721529 0 1 0-72.43443012 0Z" fill="#6970e0" p-id="1033"></path><path d="M554.9590536 686.10546569m-33.53449272 0a33.53449271 33.53449271 0 1 0 67.06898544 0 33.53449271 33.53449271 0 1 0-67.06898544 0Z" fill="#6970e0" p-id="1034"></path><path d="M459.05909827 680.64276021m-30.85223108 0a30.85223108 30.85223108 0 1 0 61.70446215 0 30.85223108 30.85223108 0 1 0-61.70446215 0Z" fill="#6970e0" p-id="1035"></path><path d="M379.09184106 627.46078219m-28.16904709 1e-8a28.16904756 28.16904756 0 1 0 56.33809466 0 28.16904756 28.16904756 0 1 0-56.33809466 0Z" fill="#6970e0" p-id="1036"></path><path d="M337.98303655 546.63984818m-25.48632498 0a25.48632499 25.48632499 0 1 0 50.97264996 0 25.48632499 25.48632499 0 1 0-50.97264996 0Z" fill="#6970e0" p-id="1037"></path><path d="M338.40388305 464.47432574m-22.80360241 0a22.80360241 22.80360241 0 1 0 45.6072048 0 22.80360241 22.80360241 0 1 0-45.6072048 0Z" fill="#6970e0" p-id="1038"></path><path d="M370.64310917 395.8620836m-20.12087983 0a20.12087982 20.12087982 0 1 0 40.24175966 0 20.12087982 20.12087982 0 1 0-40.24175966 0Z" fill="#6970e0" p-id="1039"></path><path d="M421.56828159 349.74046005m-17.43769677 0a17.43769628 17.43769628 0 1 0 34.87539305 0 17.43769628 17.43769628 0 1 0-34.87539305 0Z" fill="#6970e0" p-id="1040"></path></svg>